<?xml version="1.0" standalone="no"?>
<!DOCTYPE svg PUBLIC "-//W3C//DTD SVG 20010904//EN"
 "http://www.w3.org/TR/2001/REC-SVG-20010904/DTD/svg10.dtd">
<svg version="1.0" xmlns="http://www.w3.org/2000/svg"
 width="125.000000pt" height="125.000000pt" viewBox="0 0 125.000000 125.000000"
 preserveAspectRatio="xMidYMid meet">

<g transform="translate(0.000000,125.000000) scale(0.100000,-0.100000)"
fill="#000000" stroke="none">
<path d="M321 1021 c-15 -27 -14 -37 5 -55 14 -15 14 -20 0 -64 -19 -56 -68
-119 -97 -124 -31 -5 -17 -23 16 -20 33 3 75 39 107 90 11 18 22 31 25 28 3
-3 -2 -15 -10 -27 -14 -19 -14 -24 -1 -44 14 -21 12 -24 -26 -49 -23 -15 -40
-34 -40 -45 0 -11 14 -50 31 -88 24 -53 28 -72 20 -85 -6 -10 -11 -20 -11 -23
0 -11 29 -4 43 10 13 13 13 23 -4 87 -10 40 -19 76 -19 79 0 4 13 9 30 12 42
9 70 41 70 81 0 32 -40 136 -63 164 -6 7 -11 30 -11 50 -1 32 -4 37 -28 40
-18 2 -30 -3 -37 -17z"/>
<path d="M94 697 c-64 -58 -55 -152 19 -197 18 -11 45 -20 60 -20 37 0 95 27
108 51 13 26 -4 25 -42 -3 -43 -32 -92 -29 -130 9 -50 50 -40 126 21 158 39
20 69 19 108 -5 48 -30 62 -24 24 10 -27 25 -41 30 -82 30 -43 0 -56 -5 -86
-33z"/>
<path d="M481 673 c-17 -31 -31 -60 -31 -65 0 -21 -18 -3 -40 40 -17 33 -25
42 -28 29 -2 -10 8 -41 23 -69 18 -33 25 -62 23 -86 -2 -22 2 -37 10 -40 8 -2
12 10 12 40 0 31 11 64 40 118 42 79 45 90 31 90 -5 0 -23 -26 -40 -57z"/>
<path d="M614 697 c-91 -83 -23 -230 99 -214 40 6 87 33 95 55 6 19 -20 14
-44 -9 -16 -15 -36 -22 -65 -22 -102 0 -139 141 -49 188 39 20 69 19 108 -5
48 -30 62 -24 24 10 -27 25 -41 30 -82 30 -43 0 -56 -5 -86 -33z"/>
<path d="M880 605 l0 -126 63 3 c75 4 82 22 10 26 l-53 3 0 110 c0 66 -4 109
-10 109 -6 0 -10 -48 -10 -125z"/>
<path d="M1070 615 c0 -63 -1 -118 -2 -122 -2 -5 27 -9 65 -11 55 -2 67 0 67
13 0 12 -12 15 -55 15 l-55 0 0 45 0 45 55 0 c30 0 55 5 55 10 0 6 -25 10 -55
10 l-55 0 0 45 0 45 55 0 c30 0 55 5 55 10 0 6 -28 10 -65 10 l-65 0 0 -115z"/>
<path d="M88 373 c-2 -32 -6 -37 -23 -35 -16 3 -17 1 -8 -8 22 -23 43 -3 43
40 0 50 -8 52 -12 3z"/>
<path d="M132 365 c0 -25 4 -45 10 -45 6 0 8 7 4 15 -3 8 -1 15 3 15 5 0 11
-7 15 -15 3 -8 11 -15 17 -15 8 0 6 7 -4 18 -10 10 -17 22 -17 27 0 5 7 17 17
27 10 11 12 18 4 18 -6 0 -14 -7 -17 -15 -4 -8 -10 -15 -15 -15 -4 0 -6 7 -3
15 4 8 2 15 -4 15 -6 0 -10 -20 -10 -45z"/>
<path d="M231 379 c-11 -31 -15 -77 -4 -51 6 15 43 16 43 0 0 -6 3 -9 6 -6 7
8 -17 88 -27 88 -4 0 -12 -14 -18 -31z m29 -20 c0 -5 -4 -9 -10 -9 -5 0 -10 7
-10 16 0 8 5 12 10 9 6 -3 10 -10 10 -16z"/>
<path d="M344 395 c-7 -18 3 -35 22 -35 8 0 14 -7 14 -15 0 -18 -12 -19 -28
-3 -9 9 -12 9 -12 0 0 -20 30 -26 47 -9 14 13 13 17 -11 32 -27 18 -27 39 1
28 11 -4 14 -3 9 5 -10 17 -36 15 -42 -3z"/>
<path d="M723 365 c0 -27 2 -38 4 -22 2 15 2 37 0 50 -2 12 -4 0 -4 -28z"/>
<path d="M811 369 c-7 -23 -10 -44 -7 -47 3 -3 6 0 6 6 0 16 37 15 43 0 11
-26 7 20 -4 51 -15 41 -23 39 -38 -10z m29 -4 c0 -8 -4 -15 -10 -15 -5 0 -10
7 -10 15 0 8 5 15 10 15 6 0 10 -7 10 -15z"/>
<path d="M974 399 c-10 -16 -6 -60 6 -72 4 -5 10 8 12 27 5 42 -5 66 -18 45z"/>
<path d="M419 374 c-17 -21 0 -49 32 -49 27 0 37 28 19 50 -16 19 -34 19 -51
-1z m49 -17 c4 -21 -25 -34 -40 -19 -8 8 -8 16 2 27 16 19 34 15 38 -8z"/>
<path d="M510 375 c-25 -30 14 -75 41 -48 6 6 1 9 -13 9 -17 -1 -23 5 -23 19
0 15 6 19 23 18 13 -2 21 1 17 7 -9 14 -31 12 -45 -5z"/>
<path d="M629 374 c-18 -21 0 -48 35 -52 23 -3 26 0 26 26 0 41 -36 56 -61 26z
m51 -20 c0 -19 -28 -30 -42 -16 -8 8 -8 15 1 26 14 17 41 10 41 -10z"/>
<path d="M890 375 c-28 -33 23 -77 54 -45 8 9 4 10 -16 5 -21 -5 -29 -3 -34
10 -8 20 12 36 34 27 10 -3 13 -1 8 6 -10 16 -31 15 -46 -3z"/>
<path d="M1059 374 c-16 -20 -1 -48 29 -52 29 -5 47 31 26 52 -20 20 -38 20
-55 0z m48 -10 c9 -23 -13 -40 -32 -24 -12 10 -13 16 -4 26 15 18 28 18 36 -2z"/>
<path d="M1153 383 c-7 -2 -12 -19 -12 -36 l1 -32 7 30 c3 17 13 30 21 30 8 0
18 -13 21 -30 l7 -30 1 31 c1 21 -5 34 -15 38 -9 3 -16 6 -17 5 -1 0 -8 -3
-14 -6z"/>
<path d="M592 350 c0 -19 2 -27 5 -17 2 9 2 25 0 35 -3 9 -5 1 -5 -18z"/>
<path d="M1022 350 c0 -19 2 -27 5 -17 2 9 2 25 0 35 -3 9 -5 1 -5 -18z"/>
<path d="M67 253 c-5 -8 9 -53 16 -53 2 0 2 14 -1 30 -4 31 -8 36 -15 23z"/>
<path d="M97 253 c-5 -8 9 -53 16 -53 2 0 2 14 -1 30 -4 31 -8 36 -15 23z"/>
<path d="M180 253 c0 -7 -7 -10 -15 -7 -10 4 -15 0 -15 -14 0 -13 8 -21 25
-24 18 -4 25 -1 25 11 0 19 -20 52 -20 34z"/>
<path d="M911 243 c-6 -10 -11 -12 -11 -5 0 16 -17 16 -17 -1 0 -7 11 -18 24
-24 21 -10 23 -9 23 18 0 33 -5 36 -19 12z"/>
<path d="M970 235 c0 -26 15 -41 25 -25 3 5 1 10 -5 10 -6 0 -9 4 -5 10 3 5
13 6 22 3 10 -4 14 -2 10 4 -4 6 -16 13 -27 16 -16 4 -20 0 -20 -18z"/>
<path d="M1064 245 c-9 -22 3 -45 20 -39 18 7 17 42 -1 49 -8 2 -16 -2 -19
-10z"/>
<path d="M1149 258 c-7 -30 -3 -48 11 -48 20 0 22 41 3 48 -7 2 -13 2 -14 0z"/>
<path d="M245 241 c3 -5 1 -12 -5 -16 -14 -9 -2 -25 18 -25 15 0 15 2 2 10
-12 8 -13 12 -2 19 11 7 10 9 -3 14 -9 4 -13 3 -10 -2z"/>
<path d="M327 230 c-3 -11 -1 -18 3 -15 5 3 10 -1 13 -7 2 -7 4 -1 4 15 1 31
-12 36 -20 7z"/>
<path d="M490 232 c0 -15 4 -20 16 -15 9 3 12 9 7 12 -4 3 -11 10 -15 15 -5 5
-8 0 -8 -12z"/>
<path d="M734 232 c-9 -14 -8 -18 6 -18 11 0 15 6 12 18 -2 10 -5 18 -6 18 -1
0 -6 -8 -12 -18z"/>
<path d="M801 236 c-9 -10 -9 -16 -1 -21 6 -4 14 -4 17 -1 4 3 1 6 -6 6 -7 0
-9 5 -6 10 3 6 13 10 21 10 11 0 14 -6 9 -22 -6 -18 -5 -20 5 -11 15 14 6 43
-13 43 -8 0 -20 -6 -26 -14z"/>
<path d="M570 220 c-8 -5 -12 -11 -9 -14 3 -3 14 1 25 9 21 16 8 20 -16 5z"/>
</g>
</svg>
